<mxfile host="app.diagrams.net" agent="Mozilla/5.0 (Windows NT 10.0; Win64; x64) AppleWebKit/537.36 (KHTML, like Gecko) Chrome/137.0.0.0 Safari/537.36" version="27.1.6">
  <diagram name="Page-1" id="7fAjrGeh27Glw0_EUKf_">
    <mxGraphModel dx="1042" dy="562" grid="0" gridSize="10" guides="1" tooltips="1" connect="1" arrows="1" fold="1" page="1" pageScale="1" pageWidth="827" pageHeight="1169" math="0" shadow="0">
      <root>
        <mxCell id="0" />
        <mxCell id="1" parent="0" />
        <mxCell id="u7W0nXvLHvSpb1A4gxvU-29" value="" style="edgeStyle=orthogonalEdgeStyle;rounded=0;orthogonalLoop=1;jettySize=auto;html=1;" edge="1" parent="1" source="u7W0nXvLHvSpb1A4gxvU-1" target="u7W0nXvLHvSpb1A4gxvU-4">
          <mxGeometry relative="1" as="geometry" />
        </mxCell>
        <mxCell id="u7W0nXvLHvSpb1A4gxvU-1" value="" style="ellipse;fillColor=strokeColor;html=1;" vertex="1" parent="1">
          <mxGeometry x="255" y="160" width="30" height="30" as="geometry" />
        </mxCell>
        <mxCell id="u7W0nXvLHvSpb1A4gxvU-3" value="ghi nhận sự kiện" style="rounded=1;whiteSpace=wrap;html=1;fillColor=#dae8fc;strokeColor=#6c8ebf;" vertex="1" parent="1">
          <mxGeometry x="205" y="221" width="120" height="60" as="geometry" />
        </mxCell>
        <mxCell id="u7W0nXvLHvSpb1A4gxvU-24" value="" style="edgeStyle=orthogonalEdgeStyle;rounded=0;orthogonalLoop=1;jettySize=auto;html=1;" edge="1" parent="1" source="u7W0nXvLHvSpb1A4gxvU-4" target="u7W0nXvLHvSpb1A4gxvU-20">
          <mxGeometry relative="1" as="geometry" />
        </mxCell>
        <mxCell id="u7W0nXvLHvSpb1A4gxvU-4" value="lưu danh sách sự kiện" style="rounded=1;whiteSpace=wrap;html=1;fillColor=#dae8fc;strokeColor=#6c8ebf;" vertex="1" parent="1">
          <mxGeometry x="210" y="307" width="120" height="60" as="geometry" />
        </mxCell>
        <mxCell id="u7W0nXvLHvSpb1A4gxvU-27" value="" style="edgeStyle=orthogonalEdgeStyle;rounded=0;orthogonalLoop=1;jettySize=auto;html=1;" edge="1" parent="1" source="u7W0nXvLHvSpb1A4gxvU-9" target="u7W0nXvLHvSpb1A4gxvU-26">
          <mxGeometry relative="1" as="geometry" />
        </mxCell>
        <mxCell id="u7W0nXvLHvSpb1A4gxvU-9" value="quản lí thuốc và vật tư y tế" style="rounded=1;whiteSpace=wrap;html=1;fillColor=#dae8fc;strokeColor=#6c8ebf;" vertex="1" parent="1">
          <mxGeometry x="604" y="227" width="120" height="60" as="geometry" />
        </mxCell>
        <mxCell id="u7W0nXvLHvSpb1A4gxvU-13" value="" style="edgeStyle=orthogonalEdgeStyle;rounded=0;orthogonalLoop=1;jettySize=auto;html=1;" edge="1" parent="1" source="u7W0nXvLHvSpb1A4gxvU-11" target="u7W0nXvLHvSpb1A4gxvU-12">
          <mxGeometry relative="1" as="geometry" />
        </mxCell>
        <mxCell id="u7W0nXvLHvSpb1A4gxvU-11" value="" style="ellipse;fillColor=strokeColor;html=1;" vertex="1" parent="1">
          <mxGeometry x="443" y="158" width="30" height="30" as="geometry" />
        </mxCell>
        <mxCell id="u7W0nXvLHvSpb1A4gxvU-15" value="" style="edgeStyle=orthogonalEdgeStyle;rounded=0;orthogonalLoop=1;jettySize=auto;html=1;" edge="1" parent="1" source="u7W0nXvLHvSpb1A4gxvU-12" target="u7W0nXvLHvSpb1A4gxvU-14">
          <mxGeometry relative="1" as="geometry" />
        </mxCell>
        <mxCell id="u7W0nXvLHvSpb1A4gxvU-12" value="Quản lý danh sách&amp;nbsp; học sinh được phụ huynh gửi thuốc" style="rounded=1;whiteSpace=wrap;html=1;fillColor=#dae8fc;strokeColor=#6c8ebf;" vertex="1" parent="1">
          <mxGeometry x="398" y="221" width="120" height="60" as="geometry" />
        </mxCell>
        <mxCell id="u7W0nXvLHvSpb1A4gxvU-19" value="" style="edgeStyle=orthogonalEdgeStyle;rounded=0;orthogonalLoop=1;jettySize=auto;html=1;" edge="1" parent="1" source="u7W0nXvLHvSpb1A4gxvU-14" target="u7W0nXvLHvSpb1A4gxvU-16">
          <mxGeometry relative="1" as="geometry" />
        </mxCell>
        <mxCell id="u7W0nXvLHvSpb1A4gxvU-14" value="Theo dõi và xác nhận đã cho uống thuốc" style="rounded=1;whiteSpace=wrap;html=1;fillColor=#dae8fc;strokeColor=#6c8ebf;" vertex="1" parent="1">
          <mxGeometry x="398" y="304" width="120" height="60" as="geometry" />
        </mxCell>
        <mxCell id="u7W0nXvLHvSpb1A4gxvU-16" value="" style="ellipse;html=1;shape=endState;fillColor=strokeColor;" vertex="1" parent="1">
          <mxGeometry x="443" y="396" width="30" height="30" as="geometry" />
        </mxCell>
        <mxCell id="u7W0nXvLHvSpb1A4gxvU-20" value="" style="ellipse;html=1;shape=endState;fillColor=strokeColor;" vertex="1" parent="1">
          <mxGeometry x="255" y="393" width="30" height="30" as="geometry" />
        </mxCell>
        <mxCell id="u7W0nXvLHvSpb1A4gxvU-25" value="" style="edgeStyle=orthogonalEdgeStyle;rounded=0;orthogonalLoop=1;jettySize=auto;html=1;" edge="1" parent="1" source="u7W0nXvLHvSpb1A4gxvU-23" target="u7W0nXvLHvSpb1A4gxvU-9">
          <mxGeometry relative="1" as="geometry" />
        </mxCell>
        <mxCell id="u7W0nXvLHvSpb1A4gxvU-23" value="" style="ellipse;fillColor=strokeColor;html=1;" vertex="1" parent="1">
          <mxGeometry x="649" y="165" width="30" height="30" as="geometry" />
        </mxCell>
        <mxCell id="u7W0nXvLHvSpb1A4gxvU-26" value="" style="ellipse;html=1;shape=endState;fillColor=strokeColor;" vertex="1" parent="1">
          <mxGeometry x="649" y="326" width="30" height="30" as="geometry" />
        </mxCell>
      </root>
    </mxGraphModel>
  </diagram>
</mxfile>
